{
	"asset":{
		"generator":"Khronos glTF Blender I/O v4.1.62",
		"version":"2.0"
	},
	"extensionsUsed":[
		"KHR_materials_specular",
		"KHR_materials_ior",
		"KHR_materials_emissive_strength"
	],
	"scene":0,
	"scenes":[
		{
			"name":"Scene",
			"nodes":[
				0
			]
		}
	],
	"nodes":[
		{
			"mesh":0,
			"name":"A FRAME",
			"rotation":[
				0.7071068286895752,
				0,
				0,
				0.7071068286895752
			],
			"scale":[
				1.0800000429153442,
				1,
				1.440000057220459
			],
			"translation":[
				0,
				1.559999942779541,
				-0.04999999701976776
			]
		}
	],
	"materials":[
		{
			"doubleSided":true,
			"extensions":{
				"KHR_materials_specular":{
					"specularFactor":0.8715596199035645,
					"specularColorFactor":[
						1.0,
						0.029633771628141403,
						0.0
					]
				},
				"KHR_materials_ior":{
					"ior":7.800002098083496
				}
			},
			"name":"FRAME.002",
			"pbrMetallicRoughness":{
				"baseColorTexture":{
					"index":0
				},
				"roughnessFactor":0.056150197982788086
			}
		},
		{
			"doubleSided":true,
			"emissiveFactor":[
				0.6826397107244168,
				0,
				1
			],
			"extensions":{
				"KHR_materials_emissive_strength":{
					"emissiveStrength":3.4761110474589145
				}
			},
			"name":"LIGHT",
			"pbrMetallicRoughness":{
				"baseColorFactor":[
					0,
					0,
					0,
					1
				],
				"metallicFactor":0.8240740895271301,
				"roughnessFactor":0
			}
		}
	],
	"meshes":[
		{
			"name":"Plane",
			"primitives":[
				{
					"attributes":{
						"POSITION":0,
						"NORMAL":1,
						"TEXCOORD_0":2
					},
					"indices":3,
					"material":0
				},
				{
					"attributes":{
						"POSITION":4,
						"NORMAL":5,
						"TEXCOORD_0":6
					},
					"indices":7,
					"material":1
				}
			]
		}
	],
	"textures":[
		{
			"sampler":0,
			"source":0
		}
	],
	"images":[
		{
			"mimeType":"image/png",
			"name":"REAL FRAME_Nero .png.002",
			"uri":"../../../Athanor/Projects/GUAP/3D/gltf/REAL%20FRAME_Nero%20.png"
		}
	],
	"accessors":[
		{
			"bufferView":0,
			"componentType":5126,
			"count":226,
			"max":[
				1,
				0.05002610385417938,
				1
			],
			"min":[
				-1,
				0.004916870966553688,
				-1
			],
			"type":"VEC3"
		},
		{
			"bufferView":1,
			"componentType":5126,
			"count":226,
			"type":"VEC3"
		},
		{
			"bufferView":2,
			"componentType":5126,
			"count":226,
			"type":"VEC2"
		},
		{
			"bufferView":3,
			"componentType":5123,
			"count":438,
			"type":"SCALAR"
		},
		{
			"bufferView":4,
			"componentType":5126,
			"count":126,
			"max":[
				1,
				0.05002610385417938,
				1
			],
			"min":[
				-1,
				0.004916870966553688,
				-1
			],
			"type":"VEC3"
		},
		{
			"bufferView":5,
			"componentType":5126,
			"count":126,
			"type":"VEC3"
		},
		{
			"bufferView":6,
			"componentType":5126,
			"count":126,
			"type":"VEC2"
		},
		{
			"bufferView":7,
			"componentType":5123,
			"count":198,
			"type":"SCALAR"
		}
	],
	"bufferViews":[
		{
			"buffer":0,
			"byteLength":2712,
			"byteOffset":0,
			"target":34962
		},
		{
			"buffer":0,
			"byteLength":2712,
			"byteOffset":2712,
			"target":34962
		},
		{
			"buffer":0,
			"byteLength":1808,
			"byteOffset":5424,
			"target":34962
		},
		{
			"buffer":0,
			"byteLength":876,
			"byteOffset":7232,
			"target":34963
		},
		{
			"buffer":0,
			"byteLength":1512,
			"byteOffset":8108,
			"target":34962
		},
		{
			"buffer":0,
			"byteLength":1512,
			"byteOffset":9620,
			"target":34962
		},
		{
			"buffer":0,
			"byteLength":1008,
			"byteOffset":11132,
			"target":34962
		},
		{
			"buffer":0,
			"byteLength":396,
			"byteOffset":12140,
			"target":34963
		}
	],
	"samplers":[
		{
			"magFilter":9729,
			"minFilter":9987
		}
	],
	"buffers":[
		{
			"byteLength":12536,
			"uri":"Card%20Stats%20OG.bin"
		}
	]
}
